<?xml version="1.0" encoding="UTF-8"?>
<!-- Created with Inkscape (http://www.inkscape.org/) -->
<svg width="202.11mm" height="109.65mm" version="1.1" viewBox="0 0 202.11 109.65" xmlns="http://www.w3.org/2000/svg">
 <g transform="translate(-1.4665 -77.553)">
  <g transform="matrix(2.1172 0 0 2.1172 -26.368 -282.16)" stroke-width=".47232">
   <path d="m13.147 203.63c2.3054-3e-3 4.5938-0.39377 6.7698-1.1551 2.7114-0.94453 5.1954-2.4457 8.1314-5.1216 2.9361-2.6759 7.3845-4.0148 12.459-4.0184h10.087c-4.6681 3e-3 -9.1967 1.5918-12.843 4.5062-3.8387 3.7123-8.9696 5.788-14.31 5.7889h-3.5245z" fill="#5ab9ea" stop-color="#000000"/>
   <path d="m75.738 193.34a14.176 14.176 0 0 0-14.177 14.176 14.176 14.176 0 0 1-14.176 14.177h7.0879a14.176 14.176 0 0 0 14.177-14.177 14.176 14.176 0 0 1 14.176-14.176z" fill="#8860d0" stop-color="#000000"/>
   <path d="m75.738 221.69a14.176 14.176 0 0 1-14.177-14.176 14.176 14.176 0 0 0-14.176-14.177h7.0879a14.176 14.176 0 0 1 14.177 14.177 14.176 14.176 0 0 0 14.176 14.176z" fill="#5ab9ea" stop-color="#000000"/>
   <g fill="#8860d0">
    <ellipse cx="82.826" cy="207.52" rx="7.0883" ry="7.0883" stop-color="#000000"/>
    <path d="m36.752 207.52c-2e-5 7.8294 6.347 14.176 14.176 14.176h-7.0879c-7.8296 3e-4 -14.177-6.3468-14.177-14.176v-23.437c3.02e-4 -7.8296-6.3468-14.177-14.176-14.177h7.0879c7.8298-3e-4 14.177 6.3471 14.177 14.177z" stop-color="#000000"/>
    <path d="m82.826 193.34c1.5873 2e-3 3.163 0.27112 4.6612 0.7953 1.8669 0.65033 3.5771 1.6839 5.5987 3.5264 2.0216 1.8424 5.0844 2.7643 8.5782 2.7668h6.9453c-3.2141-2e-3 -6.3322-1.096-8.8429-3.1027-2.6431-2.556-6.1758-3.9852-9.8526-3.9858h-2.4267z" stop-color="#000000"/>
   </g>
   <path d="m82.826 221.69c1.5873-2e-3 3.163-0.27112 4.6612-0.7953 1.8669-0.65033 3.5771-1.6839 5.5987-3.5264 2.0216-1.8424 5.0844-2.7643 8.5782-2.7668h6.9453c-3.2141 2e-3 -6.3322 1.096-8.8429 3.1027-2.6431 2.556-6.1758 3.9852-9.8526 3.9858h-2.4267z" fill="#5ab9ea" stop-color="#000000"/>
  </g>
 </g>
</svg>
