<?xml version="1.0" encoding="UTF-8"?>
<!-- Created with Inkscape (http://www.inkscape.org/) -->
<svg width="210mm" height="121.88mm" version="1.1" viewBox="0 0 210 121.88" xmlns="http://www.w3.org/2000/svg">
 <rect x="17.807" y="43.071" width="192.19" height="78.807" fill="#5ab9ea" stop-color="#000000"/>
 <g stroke-width=".99998">
  <path d="m0 74.186c5.0714-0.0066 10.105-0.86622 14.892-2.541 5.9645-2.0778 11.429-5.3801 17.887-11.266 6.4588-5.8864 16.244-8.8318 27.407-8.8397h22.189c-10.269 0.0066-20.231 3.5016-28.252 9.9127-8.4444 8.1663-19.731 12.732-31.479 12.734h-7.7532z" fill="#fff" stop-color="#000000"/>
  <path d="m137.69 51.55a31.184 31.184 0 0 0-31.187 31.184 31.184 31.184 0 0 1-31.184 31.187h15.592a31.184 31.184 0 0 0 31.187-31.187 31.184 31.184 0 0 1 31.184-31.184z" fill="#c1c8e4" stop-color="#000000"/>
  <path d="m137.69 113.91a31.184 31.184 0 0 1-31.187-31.184 31.184 31.184 0 0 0-31.184-31.187h15.592a31.184 31.184 0 0 1 31.187 31.187 31.184 31.184 0 0 0 31.184 31.184z" fill="#fff" stop-color="#000000"/>
  <circle cx="153.28" cy="82.744" r="15.593" fill="#fff" stop-color="#000000"/>
  <path d="m51.926 82.744c-4.4e-5 17.223 13.962 31.184 31.184 31.184h-15.592c-17.224 6.6e-4 -31.187-13.962-31.187-31.184v-51.557c6.65e-4 -17.224-13.962-31.187-31.184-31.187h15.592c17.224-6.6e-4 31.187 13.962 31.187 31.187z" fill="#c1c8e4" stop-color="#000000"/>
  <path d="m153.28 51.55c3.4917 0.0044 6.958 0.59641 10.254 1.7495 4.1068 1.4306 7.8689 3.7042 12.316 7.7574 4.4471 4.0529 11.185 6.0809 18.87 6.0864h15.278c-7.0704-0.0044-13.93-2.411-19.453-6.8253-5.8143-5.6227-13.586-8.7666-21.674-8.768h-5.3383z" fill="#c1c8e4" stop-color="#000000"/>
  <path d="m153.28 113.91c3.4917-4e-3 6.958-0.59641 10.254-1.7495 4.1068-1.4306 7.8689-3.7042 12.316-7.7574 4.4471-4.0529 11.185-6.0809 18.87-6.0864h15.278c-7.0704 4e-3 -13.93 2.411-19.453 6.8253-5.8143 5.6227-13.586 8.7666-21.674 8.768h-5.3383z" fill="#fff" stop-color="#000000"/>
 </g>
</svg>
