<?xml version="1.0" encoding="UTF-8" standalone="no"?>
<!-- Created with Inkscape (http://www.inkscape.org/) -->

<svg
   width="164.30592mm"
   height="94.084251mm"
   version="1.1"
   viewBox="0 0 164.30592 94.08425"
   id="svg20"
   sodipodi:docname="logowt.svg"
   inkscape:version="1.2.1 (9c6d41e410, 2022-07-14)"
   xmlns:inkscape="http://www.inkscape.org/namespaces/inkscape"
   xmlns:sodipodi="http://sodipodi.sourceforge.net/DTD/sodipodi-0.dtd"
   xmlns="http://www.w3.org/2000/svg"
   xmlns:svg="http://www.w3.org/2000/svg">
  <defs
     id="defs24" />
  <sodipodi:namedview
     id="namedview22"
     pagecolor="#ffffff"
     bordercolor="#666666"
     borderopacity="1.0"
     inkscape:showpageshadow="2"
     inkscape:pageopacity="0.0"
     inkscape:pagecheckerboard="0"
     inkscape:deskcolor="#d1d1d1"
     inkscape:document-units="mm"
     showgrid="false"
     inkscape:zoom="0.40366332"
     inkscape:cx="100.33114"
     inkscape:cy="144.92275"
     inkscape:window-width="1536"
     inkscape:window-height="808"
     inkscape:window-x="0"
     inkscape:window-y="0"
     inkscape:window-maximized="1"
     inkscape:current-layer="svg20" />
  <path
     d="m 0,54.34225 c 3.82343,-0.0066 7.618361,-0.86622 11.227376,-2.541 4.496756,-2.0778 8.616552,-5.3801 13.485367,-11.266 4.869418,-5.8864 12.246676,-8.8318 20.662685,-8.8397 h 22.71297 c -7.742004,0.0066 -15.252555,3.5016 -21.299747,9.9127 -6.366402,8.1663 -14.875595,12.732 -23.732647,12.734 H 11.226472 Z"
     fill="#ffffff"
     stop-color="#000000"
     id="path4"
     sodipodi:nodetypes="ccccccccc"
     style="fill:#5ab9ea;fill-opacity:1;stroke-width:0.999979" />
  <path
     d="m 103.80724,31.70625 c -12.985226,-0.0017 -23.512496,13.960381 -23.512496,31.184 0.001,17.223619 -10.525015,31.187 -23.510245,31.187 h 17.739365 c 12.98611,0.002 23.51375,-13.962209 23.5125,-31.187 0,-17.222448 10.525886,-31.184 23.510236,-31.184 z"
     fill="#c1c8e4"
     stop-color="#000000"
     id="path6"
     sodipodi:nodetypes="ccccccc"
     style="fill:#ffffff;fill-opacity:1;stroke-width:0.999979" />
  <path
     d="m 103.80724,94.06625 c -12.985226,0.002 -23.512496,-13.960381 -23.512496,-31.184 0.001,-17.223619 -10.525015,-31.187 -23.510245,-31.187 h 17.739365 c 12.98611,-0.0017 23.51375,13.962209 23.5125,31.187 0,17.222448 10.525886,31.184 23.510236,31.184 z"
     fill="#ffffff"
     stop-color="#000000"
     id="path8"
     sodipodi:nodetypes="ccccccc"
     style="fill:#5ab9ea;fill-opacity:1;stroke-width:0.999979" />
  <circle
     cx="118.79227"
     cy="62.900253"
     r="13.060791"
     fill="#ffffff"
     stop-color="#000000"
     id="circle10"
     style="fill:#ffffff;fill-opacity:1;stroke-width:0.999976" />
  <path
     d="m 45.132289,62.90025 c -3.3e-5,17.223 10.52623,31.184 23.51024,31.184 h -17.73936 c -12.985518,6.6e-4 -23.512502,-13.962 -23.512502,-31.184 V 31.187 C 27.391168,13.963 16.864436,2.339716e-8 3.880426,2.339716e-8 h 17.73936 C 34.605304,-6.599766e-4 45.132289,13.962 45.132289,31.187 Z"
     fill="#c1c8e4"
     stop-color="#000000"
     id="path12"
     sodipodi:nodetypes="cccscccsc"
     style="fill:#ffffff;fill-opacity:1;stroke-width:0.999979" />
  <path
     d="m 115.56085,31.70625 c 2.63246,0.0044 5.24578,0.59641 7.7307,1.7495 3.09619,1.4306 5.93252,3.7042 9.28527,7.7574 3.35276,4.0529 8.4326,6.0809 14.22647,6.0864 h 17.50263 c -5.33051,-0.0044 -10.5021,-2.411 -14.666,-6.8253 -4.38352,-5.6227 -10.24276,-8.7666 -16.34046,-8.768 h -10.00889 z"
     fill="#c1c8e4"
     stop-color="#000000"
     id="path14"
     sodipodi:nodetypes="ccccccccc"
     style="fill:#ffffff;fill-opacity:1;stroke-width:0.999979" />
  <path
     d="m 115.56085,94.06625 c 2.63246,-0.004 5.24578,-0.59641 7.7307,-1.7495 3.09619,-1.4306 5.93252,-3.7042 9.28527,-7.7574 3.35276,-4.0529 8.4326,-6.0809 14.22647,-6.0864 h 17.50263 c -5.33051,0.004 -10.5021,2.411 -14.666,6.8253 -4.38352,5.6227 -10.24276,8.7666 -16.34046,8.768 h -10.00889 z"
     fill="#ffffff"
     stop-color="#000000"
     id="path16"
     sodipodi:nodetypes="ccccccccc"
     style="fill:#5ab9ea;fill-opacity:1;stroke-width:0.999979" />
</svg>
